<svg width="38" height="39" viewBox="0 0 38 39" fill="none" xmlns="http://www.w3.org/2000/svg">
<path d="M24.9729 31.1438C25.3618 31.1438 25.6931 31.0069 25.9667 30.7333C26.2389 30.4611 26.375 30.1306 26.375 29.7417C26.375 29.3514 26.2389 29.0201 25.9667 28.7479C25.6945 28.4743 25.3632 28.3375 24.9729 28.3375C24.5826 28.3375 24.2514 28.4743 23.9792 28.7479C23.707 29.0215 23.5708 29.3528 23.5708 29.7417C23.5708 30.1306 23.707 30.4611 23.9792 30.7333C24.2514 31.0069 24.5826 31.1438 24.9729 31.1438ZM29.5 31.1438C29.8889 31.1438 30.2201 31.0069 30.4938 30.7333C30.766 30.4611 30.9021 30.1306 30.9021 29.7417C30.9021 29.3514 30.766 29.0201 30.4938 28.7479C30.2215 28.4743 29.8903 28.3375 29.5 28.3375C29.1097 28.3375 28.7785 28.4743 28.5063 28.7479C28.234 29.0215 28.0979 29.3528 28.0979 29.7417C28.0979 30.1306 28.234 30.4611 28.5063 30.7333C28.7785 31.0069 29.1097 31.1438 29.5 31.1438ZM34.0271 31.1438C34.416 31.1438 34.7472 31.0069 35.0208 30.7333C35.2931 30.4611 35.4292 30.1306 35.4292 29.7417C35.4292 29.3514 35.2931 29.0201 35.0208 28.7479C34.7486 28.4743 34.4174 28.3375 34.0271 28.3375C33.6368 28.3375 33.3056 28.4743 33.0333 28.7479C32.7611 29.0215 32.625 29.3528 32.625 29.7417C32.625 30.1306 32.7611 30.4611 33.0333 30.7333C33.3056 31.0069 33.6368 31.1438 34.0271 31.1438ZM29.5 38.0729C27.1792 38.0729 25.2104 37.2646 23.5938 35.6479C21.9757 34.0312 21.1667 32.0625 21.1667 29.7417C21.1667 27.4208 21.9757 25.4514 23.5938 23.8333C25.2118 22.2153 27.1806 21.4069 29.5 21.4083C31.8195 21.4097 33.7889 22.2181 35.4083 23.8333C37.0278 25.4486 37.8361 27.4181 37.8333 29.7417C37.8333 32.0611 37.025 34.0299 35.4083 35.6479C33.7889 37.266 31.8195 38.0729 29.5 38.0729ZM7.62501 10.1875H26.375V8.10417H7.62501V10.1875ZM16.0021 33.6667H3.70001C2.76668 33.6667 1.97223 33.3389 1.31668 32.6833C0.661122 32.0278 0.333344 31.234 0.333344 30.3021V3.69792C0.333344 2.76736 0.661122 1.97361 1.31668 1.31667C1.97223 0.661114 2.76668 0.333336 3.70001 0.333336H30.3021C31.2326 0.333336 32.0264 0.661114 32.6833 1.31667C33.3389 1.97222 33.6667 2.76667 33.6667 3.7V16.0958C32.9806 15.8764 32.2924 15.7049 31.6021 15.5813C30.9104 15.459 30.2097 15.3979 29.5 15.3979C28.7972 15.3979 28.1139 15.4535 27.45 15.5646C26.7875 15.6757 26.1354 15.8326 25.4938 16.0354V15.9583H7.62501V18.0417H21.3479C20.2951 18.7653 19.3701 19.6146 18.5729 20.5896C17.7757 21.5646 17.1195 22.6382 16.6042 23.8104H7.62501V25.8937H15.875C15.725 26.4812 15.6076 27.0736 15.5229 27.6708C15.4396 28.2681 15.3979 28.8778 15.3979 29.5C15.3979 30.1389 15.4354 30.8396 15.5104 31.6021C15.5854 32.3646 15.7493 33.0528 16.0021 33.6667Z" fill="#FEFEFE"/>
</svg>
